<?xml version="1.0" standalone="no"?>
<!DOCTYPE svg PUBLIC "-//W3C//DTD SVG 20010904//EN"
 "http://www.w3.org/TR/2001/REC-SVG-20010904/DTD/svg10.dtd">
<svg version="1.0" xmlns="http://www.w3.org/2000/svg"
 width="1024.000000pt" height="1024.000000pt" viewBox="0 0 1024.000000 1024.000000"
 preserveAspectRatio="xMidYMid meet">

<g transform="translate(0.000000,1024.000000) scale(0.100000,-0.100000)"
fill="#000000" stroke="none">
<path d="M95 5950 c-16 -18 -17 -26 -6 -78 7 -31 41 -145 76 -252 87 -267 136
-442 200 -703 84 -347 84 -350 69 -378 -19 -34 -17 -73 4 -92 49 -45 150 8
152 78 0 11 38 101 84 200 46 99 112 256 147 349 l63 170 29 -95 c15 -52 63
-209 106 -349 76 -246 78 -257 68 -307 -14 -70 1 -108 41 -100 15 3 35 1 44
-4 12 -6 25 -6 39 2 20 10 21 17 16 76 -5 54 -2 75 19 131 55 142 357 1043
390 1161 38 138 41 163 19 181 -30 25 -52 1 -98 -105 -41 -91 -248 -663 -353
-972 -20 -59 -40 -112 -44 -116 -4 -4 -17 29 -29 73 -72 263 -182 606 -198
618 -10 7 -31 12 -48 10 -36 -4 -46 -23 -195 -368 -53 -124 -108 -247 -122
-273 l-24 -49 -43 179 c-111 457 -271 939 -339 1016 -20 23 -45 22 -67 -3z"/>
<path d="M2840 5711 c-6 -13 -8 -322 -4 -943 6 -1035 2 -973 77 -992 31 -8 42
-6 65 11 44 33 48 74 24 230 -24 147 -37 306 -48 573 l-6 165 28 -26 c304
-271 393 -359 461 -459 41 -61 102 -122 114 -114 5 3 7 10 3 15 -3 6 3 5 13
-2 17 -10 24 -8 44 12 29 29 31 42 14 82 -25 60 -83 129 -163 195 -75 63 -365
331 -369 342 -3 7 440 380 469 394 27 14 28 54 4 92 -22 32 -98 75 -146 81
-35 5 -40 3 -40 -14 0 -11 9 -28 20 -38 11 -10 20 -23 20 -30 0 -11 -469 -440
-474 -433 -2 1 -10 191 -19 420 -9 250 -20 425 -27 438 -14 25 -46 26 -60 1z"/>
<path d="M5728 5684 c-62 -33 -62 -25 -54 -601 l8 -523 -131 0 -130 0 -3 406
-3 406 -33 29 c-36 32 -77 37 -120 15 -53 -28 -53 -20 -50 -594 l3 -534 33
-29 c61 -54 160 -26 177 51 l7 30 354 0 354 0 0 -30 c0 -48 25 -97 59 -114 38
-20 64 -20 102 0 57 29 58 36 48 509 -4 237 -8 481 -9 543 l0 114 -34 34 c-25
25 -43 34 -67 34 -45 0 -97 -33 -105 -67 -4 -15 -4 -202 -1 -415 l7 -388 -125
0 -124 0 -3 533 c-3 489 -4 534 -21 558 -32 47 -89 61 -139 33z"/>
<path d="M6409 5587 c-58 -39 -64 -115 -12 -163 23 -21 35 -24 104 -24 l79 0
0 -130 0 -130 -56 0 c-91 0 -133 -34 -134 -108 0 -35 6 -49 29 -73 26 -26 36
-29 94 -29 l64 0 6 -97 c4 -54 7 -136 7 -182 0 -118 22 -190 77 -251 74 -83
94 -86 466 -93 190 -3 333 -1 353 5 38 10 74 57 74 96 0 13 -7 37 -16 53 -28
55 -52 59 -388 59 -284 0 -305 1 -327 19 -23 19 -24 24 -27 205 l-3 186 386 0
387 0 34 34 c46 46 48 104 5 147 l-29 29 -396 0 -396 0 0 124 0 125 288 3
c317 3 318 4 348 68 15 30 15 39 3 75 -26 76 -21 75 -535 75 l-451 0 -34 -23z"/>
<path d="M7694 5591 c-36 -22 -58 -75 -48 -115 3 -14 20 -37 36 -51 26 -22 39
-25 104 -25 l74 0 0 -129 0 -129 -66 -4 c-60 -4 -70 -7 -95 -36 -43 -48 -37
-112 15 -154 15 -13 40 -18 89 -18 l67 0 0 -179 c0 -225 15 -287 89 -361 74
-74 94 -77 466 -83 355 -6 369 -4 405 55 12 20 20 26 20 16 0 -9 14 -28 31
-42 54 -45 126 -31 251 51 73 48 123 108 166 199 l27 59 3 373 3 372 109 0
110 0 0 -186 c0 -273 8 -284 210 -284 l120 0 0 -170 c0 -221 10 -210 -177
-210 -76 0 -156 -5 -178 -10 -85 -19 -113 -108 -56 -172 l30 -33 183 3 c220 3
260 13 328 81 74 74 80 102 80 392 0 171 -4 256 -12 274 -20 45 -55 55 -188
55 l-120 0 0 188 c0 158 -3 192 -18 222 -30 60 -29 60 -444 58 l-376 -3 -26
-24 c-35 -33 -44 -85 -21 -126 23 -45 52 -55 150 -55 l85 0 0 -337 c0 -333 -1
-339 -24 -388 -28 -62 -81 -109 -162 -145 -41 -19 -67 -38 -77 -56 l-14 -28
-12 23 c-7 12 -27 31 -44 41 -30 19 -53 20 -340 20 -189 0 -316 4 -327 10 -30
16 -40 74 -40 243 l0 157 380 0 c425 0 429 1 456 67 19 43 5 93 -33 123 -25
19 -40 20 -414 20 l-389 0 0 33 c0 19 -3 75 -6 125 l-7 92 277 0 c216 0 284 3
311 14 35 15 65 59 65 96 0 12 -7 35 -16 51 -29 58 -39 59 -531 59 -424 0
-450 -1 -479 -19z"/>
<path d="M3757 5489 c-30 -17 -19 -39 58 -121 221 -235 326 -443 370 -733 9
-61 20 -119 25 -130 4 -11 11 -28 14 -39 4 -10 12 -16 20 -13 7 3 17 2 22 -3
14 -13 72 1 79 19 20 51 16 149 -10 250 -66 260 -169 439 -356 616 -136 130
-193 170 -222 154z"/>
<path d="M1814 5475 c-19 -49 81 -512 151 -701 95 -252 348 -677 420 -704 56
-21 95 25 95 112 0 48 62 203 94 237 45 47 59 118 31 155 -8 11 -15 16 -15 10
0 -5 -4 -3 -9 4 -5 8 -28 14 -55 14 -64 1 -92 -27 -112 -113 -8 -35 -22 -95
-32 -132 l-18 -69 -56 79 c-216 301 -339 589 -416 978 -25 126 -30 140 -50
143 -14 2 -25 -3 -28 -13z"/>
</g>
</svg>
